<mxfile host="app.diagrams.net" modified="2021-02-26T18:21:27.247Z" agent="5.0 (Macintosh; Intel Mac OS X 10_15_7) AppleWebKit/537.36 (KHTML, like Gecko) Chrome/88.0.4324.182 Safari/537.36" etag="rLWNaL3j3T09crfBvF0i" version="14.4.3" type="github">
  <diagram id="C5RBs43oDa-KdzZeNtuy" name="Page-1">
    <mxGraphModel dx="1113" dy="676" grid="1" gridSize="10" guides="1" tooltips="1" connect="1" arrows="1" fold="1" page="1" pageScale="1" pageWidth="827" pageHeight="1169" math="0" shadow="0">
      <root>
        <mxCell id="WIyWlLk6GJQsqaUBKTNV-0" />
        <mxCell id="WIyWlLk6GJQsqaUBKTNV-1" parent="WIyWlLk6GJQsqaUBKTNV-0" />
        <mxCell id="kIP-wK6hWAVPPwqiTlkb-15" style="edgeStyle=orthogonalEdgeStyle;rounded=0;orthogonalLoop=1;jettySize=auto;html=1;exitX=0.25;exitY=0;exitDx=0;exitDy=0;entryX=0.25;entryY=1;entryDx=0;entryDy=0;" edge="1" parent="WIyWlLk6GJQsqaUBKTNV-1" source="kIP-wK6hWAVPPwqiTlkb-8" target="kIP-wK6hWAVPPwqiTlkb-10">
          <mxGeometry relative="1" as="geometry" />
        </mxCell>
        <mxCell id="kIP-wK6hWAVPPwqiTlkb-16" style="edgeStyle=orthogonalEdgeStyle;rounded=0;orthogonalLoop=1;jettySize=auto;html=1;exitX=0.75;exitY=1;exitDx=0;exitDy=0;entryX=1;entryY=0;entryDx=0;entryDy=0;" edge="1" parent="WIyWlLk6GJQsqaUBKTNV-1" source="kIP-wK6hWAVPPwqiTlkb-8" target="kIP-wK6hWAVPPwqiTlkb-13">
          <mxGeometry relative="1" as="geometry" />
        </mxCell>
        <mxCell id="kIP-wK6hWAVPPwqiTlkb-8" value="NGINX Container&lt;br&gt;8080:80" style="rounded=0;whiteSpace=wrap;html=1;" vertex="1" parent="WIyWlLk6GJQsqaUBKTNV-1">
          <mxGeometry x="325" y="240" width="140" height="60" as="geometry" />
        </mxCell>
        <mxCell id="kIP-wK6hWAVPPwqiTlkb-14" style="edgeStyle=orthogonalEdgeStyle;rounded=0;orthogonalLoop=1;jettySize=auto;html=1;exitX=0.75;exitY=1;exitDx=0;exitDy=0;entryX=0.75;entryY=0;entryDx=0;entryDy=0;" edge="1" parent="WIyWlLk6GJQsqaUBKTNV-1" source="kIP-wK6hWAVPPwqiTlkb-10" target="kIP-wK6hWAVPPwqiTlkb-8">
          <mxGeometry relative="1" as="geometry" />
        </mxCell>
        <mxCell id="kIP-wK6hWAVPPwqiTlkb-10" value="User (Browser)" style="rounded=1;whiteSpace=wrap;html=1;" vertex="1" parent="WIyWlLk6GJQsqaUBKTNV-1">
          <mxGeometry x="335" y="140" width="120" height="60" as="geometry" />
        </mxCell>
        <mxCell id="kIP-wK6hWAVPPwqiTlkb-18" style="edgeStyle=orthogonalEdgeStyle;rounded=0;orthogonalLoop=1;jettySize=auto;html=1;exitX=0;exitY=0;exitDx=0;exitDy=0;entryX=0.25;entryY=1;entryDx=0;entryDy=0;" edge="1" parent="WIyWlLk6GJQsqaUBKTNV-1" source="kIP-wK6hWAVPPwqiTlkb-13" target="kIP-wK6hWAVPPwqiTlkb-8">
          <mxGeometry relative="1" as="geometry">
            <Array as="points">
              <mxPoint x="347" y="340" />
              <mxPoint x="360" y="340" />
            </Array>
          </mxGeometry>
        </mxCell>
        <mxCell id="kIP-wK6hWAVPPwqiTlkb-20" value="" style="edgeStyle=orthogonalEdgeStyle;rounded=0;orthogonalLoop=1;jettySize=auto;html=1;" edge="1" parent="WIyWlLk6GJQsqaUBKTNV-1" source="kIP-wK6hWAVPPwqiTlkb-13" target="kIP-wK6hWAVPPwqiTlkb-19">
          <mxGeometry relative="1" as="geometry" />
        </mxCell>
        <mxCell id="kIP-wK6hWAVPPwqiTlkb-22" value="" style="edgeStyle=orthogonalEdgeStyle;rounded=0;orthogonalLoop=1;jettySize=auto;html=1;" edge="1" parent="WIyWlLk6GJQsqaUBKTNV-1" source="kIP-wK6hWAVPPwqiTlkb-13" target="kIP-wK6hWAVPPwqiTlkb-21">
          <mxGeometry relative="1" as="geometry" />
        </mxCell>
        <mxCell id="kIP-wK6hWAVPPwqiTlkb-24" value="" style="edgeStyle=orthogonalEdgeStyle;rounded=0;orthogonalLoop=1;jettySize=auto;html=1;" edge="1" parent="WIyWlLk6GJQsqaUBKTNV-1" source="kIP-wK6hWAVPPwqiTlkb-13" target="kIP-wK6hWAVPPwqiTlkb-23">
          <mxGeometry relative="1" as="geometry" />
        </mxCell>
        <mxCell id="kIP-wK6hWAVPPwqiTlkb-27" style="edgeStyle=orthogonalEdgeStyle;rounded=0;orthogonalLoop=1;jettySize=auto;html=1;exitX=1;exitY=1;exitDx=0;exitDy=0;" edge="1" parent="WIyWlLk6GJQsqaUBKTNV-1" source="kIP-wK6hWAVPPwqiTlkb-13" target="kIP-wK6hWAVPPwqiTlkb-25">
          <mxGeometry relative="1" as="geometry">
            <Array as="points">
              <mxPoint x="443" y="480" />
              <mxPoint x="588" y="480" />
            </Array>
          </mxGeometry>
        </mxCell>
        <mxCell id="kIP-wK6hWAVPPwqiTlkb-29" style="edgeStyle=orthogonalEdgeStyle;rounded=0;orthogonalLoop=1;jettySize=auto;html=1;exitX=0;exitY=1;exitDx=0;exitDy=0;entryX=0.5;entryY=0;entryDx=0;entryDy=0;" edge="1" parent="WIyWlLk6GJQsqaUBKTNV-1" source="kIP-wK6hWAVPPwqiTlkb-13" target="kIP-wK6hWAVPPwqiTlkb-28">
          <mxGeometry relative="1" as="geometry">
            <Array as="points">
              <mxPoint x="347" y="480" />
              <mxPoint x="200" y="480" />
            </Array>
          </mxGeometry>
        </mxCell>
        <mxCell id="kIP-wK6hWAVPPwqiTlkb-13" value="Docker Network" style="ellipse;whiteSpace=wrap;html=1;" vertex="1" parent="WIyWlLk6GJQsqaUBKTNV-1">
          <mxGeometry x="327.5" y="365" width="135" height="90" as="geometry" />
        </mxCell>
        <mxCell id="kIP-wK6hWAVPPwqiTlkb-19" value="Node-RED&lt;br&gt;1880:1880" style="whiteSpace=wrap;html=1;" vertex="1" parent="WIyWlLk6GJQsqaUBKTNV-1">
          <mxGeometry x="530" y="380" width="120" height="60" as="geometry" />
        </mxCell>
        <mxCell id="kIP-wK6hWAVPPwqiTlkb-21" value="Vue App&lt;br&gt;8080:8080" style="whiteSpace=wrap;html=1;" vertex="1" parent="WIyWlLk6GJQsqaUBKTNV-1">
          <mxGeometry x="140" y="380" width="120" height="60" as="geometry" />
        </mxCell>
        <mxCell id="kIP-wK6hWAVPPwqiTlkb-23" value="Grafana&lt;br&gt;3000:3000" style="whiteSpace=wrap;html=1;" vertex="1" parent="WIyWlLk6GJQsqaUBKTNV-1">
          <mxGeometry x="335" y="535" width="120" height="60" as="geometry" />
        </mxCell>
        <mxCell id="kIP-wK6hWAVPPwqiTlkb-25" value="Lambdas&lt;br&gt;4000:4000" style="whiteSpace=wrap;html=1;" vertex="1" parent="WIyWlLk6GJQsqaUBKTNV-1">
          <mxGeometry x="530" y="535" width="120" height="60" as="geometry" />
        </mxCell>
        <mxCell id="kIP-wK6hWAVPPwqiTlkb-28" value="K8 Dash&lt;br&gt;2222:2222&lt;br&gt;" style="whiteSpace=wrap;html=1;" vertex="1" parent="WIyWlLk6GJQsqaUBKTNV-1">
          <mxGeometry x="140" y="535" width="120" height="60" as="geometry" />
        </mxCell>
      </root>
    </mxGraphModel>
  </diagram>
</mxfile>
